<?xml version="1.0" encoding="UTF-8" standalone="no"?>
<!DOCTYPE svg PUBLIC "-//W3C//DTD SVG 1.1//EN" "http://www.w3.org/Graphics/SVG/1.1/DTD/svg11.dtd">
<svg width="100%" height="100%" viewBox="0 0 64 64" version="1.1" xmlns="http://www.w3.org/2000/svg" xmlns:xlink="http://www.w3.org/1999/xlink" xml:space="preserve" xmlns:serif="http://www.serif.com/" style="fill-rule:evenodd;clip-rule:evenodd;stroke-linecap:round;stroke-miterlimit:1.5;">
    <g id="Background">
    </g>
    <g transform="matrix(1.03279,0,0,1.01613,-1.56557,-1.02419)">
        <g id="Outerrim">
            <path d="M63,15.76C63,7.89 56.713,1.5 48.97,1.5L16.03,1.5C8.287,1.5 2,7.89 2,15.76L2,49.24C2,57.11 8.287,63.5 16.03,63.5L48.97,63.5C56.713,63.5 63,57.11 63,49.24L63,15.76Z" style="fill:white;"/>
            <path d="M63,15.76C63,7.89 56.713,1.5 48.97,1.5L16.03,1.5C8.287,1.5 2,7.89 2,15.76L2,49.24C2,57.11 8.287,63.5 16.03,63.5L48.97,63.5C56.713,63.5 63,57.11 63,49.24L63,15.76ZM62.072,15.76L62.072,49.24C62.072,56.59 56.201,62.557 48.97,62.557L16.03,62.557C8.799,62.557 2.928,56.59 2.928,49.24L2.928,15.76C2.928,8.41 8.799,2.443 16.03,2.443L48.97,2.443C56.201,2.443 62.072,8.41 62.072,15.76Z"/>
        </g>
    </g>
    <g id="IRIS">
        <g transform="matrix(1.06667,0,0,1.06667,-3.73333,-3.73333)">
            <path d="M33.5,11C45.918,11 56,21.082 56,33.5C56,45.918 45.918,56 33.5,56C21.082,56 11,45.918 11,33.5C11,21.082 21.082,11 33.5,11ZM33.5,22.25C39.709,22.25 44.75,27.291 44.75,33.5C44.75,39.709 39.709,44.75 33.5,44.75C27.291,44.75 22.25,39.709 22.25,33.5C22.25,27.291 27.291,22.25 33.5,22.25Z"/>
            <path d="M33.5,11C45.918,11 56,21.082 56,33.5C56,45.918 45.918,56 33.5,56C21.082,56 11,45.918 11,33.5C11,21.082 21.082,11 33.5,11ZM33.5,12.364C45.165,12.364 54.636,21.835 54.636,33.5C54.636,45.165 45.165,54.636 33.5,54.636C21.835,54.636 12.364,45.165 12.364,33.5C12.364,21.835 21.835,12.364 33.5,12.364ZM33.5,20.886C26.538,20.886 20.886,26.538 20.886,33.5C20.886,40.462 26.538,46.114 33.5,46.114C40.462,46.114 46.114,40.462 46.114,33.5C46.114,26.538 40.462,20.886 33.5,20.886ZM33.5,22.25C39.709,22.25 44.75,27.291 44.75,33.5C44.75,39.709 39.709,44.75 33.5,44.75C27.291,44.75 22.25,39.709 22.25,33.5C22.25,27.291 27.291,22.25 33.5,22.25Z"/>
        </g>
        <g transform="matrix(0.916667,0,0,1.625,2.66667,-20)">
            <path d="M44,16C44,16 47.071,19.025 47.273,24C47.483,29.19 44,32 44,32L32,32" style="fill:none;stroke:white;stroke-width:1.1px;"/>
        </g>
        <g transform="matrix(0.702207,-0.589222,1.04453,1.24482,-23.9091,11.0208)">
            <path d="M44,16C44,16 47.071,19.025 47.273,24C47.483,29.19 44,32 44,32L32,32" style="fill:none;stroke:white;stroke-width:1.1px;"/>
        </g>
        <g transform="matrix(0.159177,-0.90274,1.60031,0.282178,-24.2138,51.858)">
            <path d="M44,16C44,16 47.071,19.025 47.273,24C47.483,29.19 44,32 44,32L32,32" style="fill:none;stroke:white;stroke-width:1.1px;"/>
        </g>
        <g transform="matrix(-0.458333,-0.793857,1.40729,-0.8125,1.65001,83.3397)">
            <path d="M44,16C44,16 47.071,19.025 47.273,24C47.483,29.19 44,32 44,32L32,32" style="fill:none;stroke:white;stroke-width:1.1px;"/>
        </g>
        <g transform="matrix(-0.861385,-0.313518,0.555783,-1.527,41.7793,90.9538)">
            <path d="M44,16C44,16 47.071,19.025 47.273,24C47.483,29.19 44,32 44,32L32,32" style="fill:none;stroke:white;stroke-width:1.1px;"/>
        </g>
        <g transform="matrix(-0.861385,0.313518,-0.555783,-1.527,77.366,70.8314)">
            <path d="M44,16C44,16 47.071,19.025 47.273,24C47.483,29.19 44,32 44,32L32,32" style="fill:none;stroke:white;stroke-width:1.1px;"/>
        </g>
        <g transform="matrix(-0.458333,0.793857,-1.40729,-0.8125,91.6833,32.5966)">
            <path d="M44,16C44,16 47.071,19.025 47.273,24C47.483,29.19 44,32 44,32L32,32" style="fill:none;stroke:white;stroke-width:1.1px;"/>
        </g>
        <g transform="matrix(0.159177,0.90274,-1.60031,0.282178,78.133,-5.9174)">
            <path d="M44,16C44,16 47.071,19.025 47.273,24C47.483,29.19 44,32 44,32L32,32" style="fill:none;stroke:white;stroke-width:1.1px;"/>
        </g>
        <g transform="matrix(0.702207,0.589222,-1.04453,1.24482,42.971,-26.7601)">
            <path d="M44,16C44,16 47.071,19.025 47.273,24C47.483,29.19 44,32 44,32L32,32" style="fill:none;stroke:white;stroke-width:1.1px;"/>
        </g>
    </g>
</svg>
