<?xml version="1.0" encoding="UTF-8" standalone="no"?>
<!DOCTYPE svg PUBLIC "-//W3C//DTD SVG 1.1//EN" "http://www.w3.org/Graphics/SVG/1.1/DTD/svg11.dtd">
<svg width="100%" height="100%" viewBox="0 0 64 64" version="1.1" xmlns="http://www.w3.org/2000/svg" xmlns:xlink="http://www.w3.org/1999/xlink" xml:space="preserve" xmlns:serif="http://www.serif.com/" style="fill-rule:evenodd;clip-rule:evenodd;stroke-linejoin:round;stroke-miterlimit:2;">
    <g id="Background">
    </g>
    <g transform="matrix(1.03279,0,0,1.01613,-1.56557,-1.02419)">
        <g id="Outerrim">
            <path d="M63,15.76C63,7.89 56.713,1.5 48.97,1.5L16.03,1.5C8.287,1.5 2,7.89 2,15.76L2,49.24C2,57.11 8.287,63.5 16.03,63.5L48.97,63.5C56.713,63.5 63,57.11 63,49.24L63,15.76Z" style="fill:white;"/>
            <path d="M63,15.76C63,7.89 56.713,1.5 48.97,1.5L16.03,1.5C8.287,1.5 2,7.89 2,15.76L2,49.24C2,57.11 8.287,63.5 16.03,63.5L48.97,63.5C56.713,63.5 63,57.11 63,49.24L63,15.76ZM62.072,15.76L62.072,49.24C62.072,56.59 56.201,62.557 48.97,62.557L16.03,62.557C8.799,62.557 2.928,56.59 2.928,49.24L2.928,15.76C2.928,8.41 8.799,2.443 16.03,2.443L48.97,2.443C56.201,2.443 62.072,8.41 62.072,15.76Z"/>
        </g>
    </g>
    <g transform="matrix(0.905742,0,0,0.986942,-1.81709,20.3879)">
        <g id="ISO">
            <g id="ISO1" serif:id="ISO">
                <rect x="10.839" y="0.008" width="4.745" height="23.5" style="fill-rule:nonzero;"/>
                <path d="M18.902,15.861L23.518,15.413C23.796,16.962 24.36,18.1 25.21,18.827C26.059,19.554 27.205,19.917 28.648,19.917C30.176,19.917 31.328,19.594 32.103,18.947C32.877,18.301 33.265,17.545 33.265,16.679C33.265,16.123 33.102,15.65 32.776,15.26C32.45,14.87 31.881,14.531 31.069,14.242C30.513,14.05 29.247,13.708 27.269,13.216C24.726,12.586 22.941,11.811 21.915,10.892C20.473,9.599 19.751,8.023 19.751,6.163C19.751,4.966 20.091,3.847 20.769,2.805C21.448,1.763 22.426,0.969 23.703,0.424C24.98,-0.121 26.521,-0.393 28.327,-0.393C31.277,-0.393 33.497,0.253 34.988,1.547C36.479,2.84 37.262,4.566 37.336,6.724L32.591,6.933C32.388,5.725 31.953,4.857 31.285,4.328C30.617,3.799 29.615,3.534 28.279,3.534C26.901,3.534 25.821,3.817 25.041,4.384C24.539,4.747 24.288,5.233 24.288,5.843C24.288,6.398 24.523,6.874 24.993,7.269C25.592,7.772 27.045,8.295 29.353,8.84C31.662,9.385 33.369,9.949 34.475,10.531C35.581,11.114 36.447,11.91 37.072,12.92C37.697,13.93 38.01,15.177 38.01,16.663C38.01,18.009 37.636,19.27 36.887,20.446C36.139,21.621 35.081,22.495 33.714,23.067C32.346,23.639 30.641,23.924 28.6,23.924C25.629,23.924 23.347,23.238 21.755,21.865C20.163,20.491 19.212,18.49 18.902,15.861Z" style="fill-rule:nonzero;"/>
                <path d="M41.039,11.902C41.039,9.508 41.397,7.499 42.113,5.875C42.648,4.678 43.377,3.604 44.301,2.653C45.226,1.702 46.238,0.996 47.339,0.537C48.803,-0.083 50.492,-0.393 52.405,-0.393C55.867,-0.393 58.638,0.681 60.716,2.829C62.795,4.977 63.834,7.964 63.834,11.79C63.834,15.584 62.803,18.552 60.74,20.694C58.678,22.837 55.92,23.908 52.469,23.908C48.974,23.908 46.196,22.842 44.133,20.71C42.071,18.578 41.039,15.642 41.039,11.902ZM45.928,11.742C45.928,14.403 46.543,16.42 47.772,17.793C49.001,19.166 50.561,19.853 52.453,19.853C54.344,19.853 55.896,19.172 57.109,17.809C58.322,16.446 58.929,14.403 58.929,11.678C58.929,8.984 58.338,6.975 57.157,5.65C55.977,4.325 54.408,3.663 52.453,3.663C50.497,3.663 48.921,4.333 47.724,5.674C46.527,7.015 45.928,9.038 45.928,11.742Z" style="fill-rule:nonzero;"/>
            </g>
        </g>
    </g>
</svg>
