<?xml version="1.0" encoding="UTF-8" standalone="no"?>
<!DOCTYPE svg PUBLIC "-//W3C//DTD SVG 1.1//EN" "http://www.w3.org/Graphics/SVG/1.1/DTD/svg11.dtd">
<svg width="100%" height="100%" viewBox="0 0 64 64" version="1.1" xmlns="http://www.w3.org/2000/svg" xmlns:xlink="http://www.w3.org/1999/xlink" xml:space="preserve" xmlns:serif="http://www.serif.com/" style="fill-rule:evenodd;clip-rule:evenodd;stroke-linejoin:round;stroke-miterlimit:2;">
    <g id="Background">
    </g>
    <g transform="matrix(1.03279,0,0,1.01613,-1.56557,-1.02419)">
        <g id="Outerrim">
            <path d="M63,15.76C63,7.89 56.713,1.5 48.97,1.5L16.03,1.5C8.287,1.5 2,7.89 2,15.76L2,49.24C2,57.11 8.287,63.5 16.03,63.5L48.97,63.5C56.713,63.5 63,57.11 63,49.24L63,15.76Z" style="fill:white;"/>
            <path d="M63,15.76C63,7.89 56.713,1.5 48.97,1.5L16.03,1.5C8.287,1.5 2,7.89 2,15.76L2,49.24C2,57.11 8.287,63.5 16.03,63.5L48.97,63.5C56.713,63.5 63,57.11 63,49.24L63,15.76ZM62.072,15.76L62.072,49.24C62.072,56.59 56.201,62.557 48.97,62.557L16.03,62.557C8.799,62.557 2.928,56.59 2.928,49.24L2.928,15.76C2.928,8.41 8.799,2.443 16.03,2.443L48.97,2.443C56.201,2.443 62.072,8.41 62.072,15.76Z"/>
        </g>
    </g>
    <g transform="matrix(1.23077,0,0,1.26316,-12.9231,-14.7368)">
        <g id="Record">
            <path d="M36.5,18C47.262,18 56,26.514 56,37C56,47.486 47.262,56 36.5,56C25.738,56 17,47.486 17,37C17,26.514 25.738,18 36.5,18ZM36.5,20.28C45.971,20.28 53.66,27.772 53.66,37C53.66,46.228 45.971,53.72 36.5,53.72C27.029,53.72 19.34,46.228 19.34,37C19.34,27.772 27.029,20.28 36.5,20.28Z" style="fill:rgb(242,13,13);"/>
            <path d="M36.5,16.848C25.085,16.848 15.817,25.878 15.817,37C15.817,48.122 25.085,57.152 36.5,57.152C47.915,57.152 57.183,48.122 57.183,37C57.183,25.878 47.915,16.848 36.5,16.848ZM36.5,18C47.262,18 56,26.514 56,37C56,47.486 47.262,56 36.5,56C25.738,56 17,47.486 17,37C17,26.514 25.738,18 36.5,18ZM36.5,20.28C45.971,20.28 53.66,27.772 53.66,37C53.66,46.228 45.971,53.72 36.5,53.72C27.029,53.72 19.34,46.228 19.34,37C19.34,27.772 27.029,20.28 36.5,20.28ZM36.5,21.432C45.318,21.432 52.477,28.408 52.477,37C52.477,45.592 45.318,52.568 36.5,52.568C27.682,52.568 20.523,45.592 20.523,37C20.523,28.408 27.682,21.432 36.5,21.432Z" style="fill:white;"/>
        </g>
    </g>
</svg>
