<?xml version="1.0" encoding="UTF-8" standalone="no"?>
<!DOCTYPE svg PUBLIC "-//W3C//DTD SVG 1.1//EN" "http://www.w3.org/Graphics/SVG/1.1/DTD/svg11.dtd">
<svg width="100%" height="100%" viewBox="0 0 64 64" version="1.1" xmlns="http://www.w3.org/2000/svg" xmlns:xlink="http://www.w3.org/1999/xlink" xml:space="preserve" xmlns:serif="http://www.serif.com/" style="fill-rule:evenodd;clip-rule:evenodd;stroke-linejoin:round;stroke-miterlimit:2;">
    <g id="Background">
    </g>
    <g transform="matrix(1.03279,0,0,1.01613,-1.56557,-1.02419)">
        <g id="Outerrim">
            <path d="M63,15.76C63,7.89 56.713,1.5 48.97,1.5L16.03,1.5C8.287,1.5 2,7.89 2,15.76L2,49.24C2,57.11 8.287,63.5 16.03,63.5L48.97,63.5C56.713,63.5 63,57.11 63,49.24L63,15.76Z" style="fill:white;"/>
            <path d="M63,15.76C63,7.89 56.713,1.5 48.97,1.5L16.03,1.5C8.287,1.5 2,7.89 2,15.76L2,49.24C2,57.11 8.287,63.5 16.03,63.5L48.97,63.5C56.713,63.5 63,57.11 63,49.24L63,15.76ZM62.072,15.76L62.072,49.24C62.072,56.59 56.201,62.557 48.97,62.557L16.03,62.557C8.799,62.557 2.928,56.59 2.928,49.24L2.928,15.76C2.928,8.41 8.799,2.443 16.03,2.443L48.97,2.443C56.201,2.443 62.072,8.41 62.072,15.76Z"/>
        </g>
    </g>
    <g transform="matrix(1,0,0,1,6.0559,-0.492843)">
        <path d="M13.944,38.047L17.811,37.709C17.994,39.259 18.42,40.53 19.09,41.523C19.759,42.516 20.798,43.319 22.207,43.932C23.615,44.545 25.2,44.851 26.961,44.851C28.525,44.851 29.905,44.619 31.103,44.154C32.3,43.689 33.191,43.052 33.776,42.242C34.361,41.432 34.653,40.548 34.653,39.59C34.653,38.618 34.371,37.769 33.808,37.043C33.244,36.318 32.314,35.708 31.018,35.215C30.187,34.891 28.349,34.388 25.503,33.704C22.657,33.021 20.664,32.377 19.523,31.771C18.044,30.996 16.941,30.035 16.216,28.887C15.49,27.738 15.127,26.453 15.127,25.03C15.127,23.466 15.571,22.005 16.459,20.645C17.346,19.286 18.642,18.254 20.347,17.549C22.052,16.845 23.946,16.493 26.031,16.493C28.328,16.493 30.353,16.863 32.107,17.602C33.861,18.342 35.209,19.43 36.153,20.867C37.097,22.304 37.604,23.931 37.675,25.748L33.744,26.044C33.533,24.086 32.818,22.607 31.6,21.607C30.381,20.606 28.581,20.106 26.2,20.106C23.721,20.106 21.914,20.561 20.78,21.469C19.646,22.378 19.079,23.473 19.079,24.755C19.079,25.868 19.481,26.784 20.284,27.502C21.072,28.221 23.133,28.957 26.465,29.711C29.796,30.464 32.082,31.123 33.322,31.686C35.125,32.518 36.456,33.571 37.316,34.846C38.175,36.121 38.605,37.589 38.605,39.252C38.605,40.9 38.133,42.453 37.189,43.911C36.245,45.369 34.889,46.503 33.121,47.313C31.353,48.123 29.363,48.528 27.151,48.528C24.348,48.528 21.999,48.12 20.104,47.303C18.209,46.486 16.723,45.256 15.645,43.615C14.567,41.974 14,40.118 13.944,38.047Z" style="fill:none;fill-rule:nonzero;stroke:black;stroke-width:1px;"/>
    </g>
</svg>
